PathFileType	4	(X/Y/Z)	C:\Users\chris\Documents\GitHub\baseballds\vids\pitch5_Sports2D\pitch5_Sports2D_m_person00.trc
DataRate	CameraRate	NumFrames	NumMarkers	Units	OrigDataRate	OrigDataStartFrame	OrigNumFrames
30	30	8	22	m	30	37	149
Frame#	Time	Hip			RHip			RKnee			RAnkle			RBigToe			RSmallToe			RHeel			LHip			LKnee			LAnkle			LBigToe			LSmallToe			LHeel			Neck			Head			Nose			RShoulder			RElbow			RWrist			LShoulder			LElbow			LWrist		
		X1	Y1	Z1	X2	Y2	Z2	X3	Y3	Z3	X4	Y4	Z4	X5	Y5	Z5	X6	Y6	Z6	X7	Y7	Z7	X8	Y8	Z8	X9	Y9	Z9	X10	Y10	Z10	X11	Y11	Z11	X12	Y12	Z12	X13	Y13	Z13	X14	Y14	Z14	X15	Y15	Z15	X16	Y16	Z16	X17	Y17	Z17	X18	Y18	Z18	X19	Y19	Z19	X20	Y20	Z20	X21	Y21	Z21	X22	Y22	Z22
37	1.2333333333333334	1.5469504886005156	0.9573674934943813	0.0	1.438406150535139	0.9081700619032158	0.0	1.4586080426937345	0.476441329934059	0.0	1.461719396463812	0.11461003751925525	0.0	1.4823972309357858	-0.023587756397179156	0.0	1.4054091639606454	-0.017899419904411344	0.0	1.4791909655255957	0.06392785858036858	0.0	1.6624866471683248	0.9225724579967484	0.0	1.7295205451156257	0.5009656251737692	0.0	1.823468229855256	0.15077982189615746	0.0	1.7460282630020973	0.008083922899205715	0.0	1.8247176291802656	0.009511513873594116	0.0	1.8571794799285586	0.09411181679014043	0.0	1.5113610424137005	1.5809323451557251	0.0	1.5549993483238027	1.8578821219216144	0.0	1.6658152831100872	1.7075113424943662	0.0	1.3101651723127254	1.4722119314051816	0.0	1.2640196153631211	1.165323192877259	0.0	1.443034061610437	1.2033013753833297	0.0	1.7152286308323674	1.4978893278359653	0.0	1.792403103357624	1.2060496849647577	0.0	1.7002519700039662	1.1511990649588277	0.0
38	1.2666666666666666	1.550599156687732	0.955466964009883	0.0	1.4406898834737627	0.90642482896343	0.0	1.4597359454537877	0.47612395330607954	0.0	1.4623141433740552	0.11391670841000867	0.0	1.4821469006513988	-0.024304220931722142	0.0	1.4058658588705153	-0.017559641895656695	0.0	1.4803327206269827	0.06195552422280757	0.0	1.665375898820022	0.9214906743860465	0.0	1.7311180835084625	0.4990505973037706	0.0	1.8243907945989637	0.15016762778789491	0.0	1.7462016683389452	0.005968152760934956	0.0	1.8245873491774485	0.0079722494149133	0.0	1.8577829857489205	0.09248445357091391	0.0	1.5145489183912362	1.5815629212704219	0.0	1.5571018476719451	1.8594502602143101	0.0	1.6683386963003382	1.7077755687702687	0.0	1.3140944335071032	1.4712448850952127	0.0	1.266956174165218	1.16483014069179	0.0	1.4488479086654418	1.2009516732048693	0.0	1.7162483575210674	1.4962865221155215	0.0	1.79584341763721	1.2053637054668331	0.0	1.6985711957894505	1.1554751389969988	0.0
39	1.3	1.5533562593269195	0.9552504358126463	0.0	1.4426228584032768	0.9060564728474917	0.0	1.4613968551581968	0.4752957843074486	0.0	1.4624258365109786	0.11200215027588131	0.0	1.4845598838246847	-0.025985064555789125	0.0	1.4082392695623107	-0.018401251342982414	0.0	1.4815895986885725	0.06096575674199984	0.0	1.6669609191871495	0.9199406042507565	0.0	1.7320826055348493	0.49780923939741284	0.0	1.8255138270041606	0.1506387029512886	0.0	1.7461189311695875	0.0019016724307903948	0.0	1.826311786799218	0.005918471649752856	0.0	1.8588258103046031	0.09368925220584813	0.0	1.5169810164915152	1.5836848523071947	0.0	1.5592938860864607	1.8607996540571583	0.0	1.6711638128842312	1.707776537818924	0.0	1.3169114812793628	1.4712981867622756	0.0	1.27058562345376	1.1633774001225057	0.0	1.455452781122968	1.2017720546650537	0.0	1.7187776588927015	1.4952376663467337	0.0	1.8016370085794173	1.2022832261296477	0.0	1.6947079007808985	1.15453534662806	0.0
40	1.3333333333333333	1.5554402755844836	0.9553537547919679	0.0	1.4443065469439416	0.906777593393127	0.0	1.463192725014504	0.47600418686832047	0.0	1.4621993136183913	0.10930199701454982	0.0	1.4866892319032894	-0.027313334790347643	0.0	1.4107069077675025	-0.019365712375653446	0.0	1.4825386199813992	0.05855877039159442	0.0	1.668440666563801	0.9188128383919635	0.0	1.7329578874216318	0.4978896874031809	0.0	1.8267970239335911	0.15175870424284377	0.0	1.746434651106737	8.713525153995507e-05	0.0	1.828536131175168	0.005361040488952243	0.0	1.859379584618212	0.09621712613169962	0.0	1.5189803717321337	1.5857325586369089	0.0	1.560994444742829	1.8606422561754123	0.0	1.6735620122729036	1.7080198508987439	0.0	1.3186361935677555	1.4721879641009294	0.0	1.2731882337433935	1.162899656275651	0.0	1.4590036567274514	1.2017442621216312	0.0	1.7224226794113047	1.4951313768294439	0.0	1.8079955386003042	1.202397409232306	0.0	1.6946931654889898	1.151176970574641	0.0
41	1.3666666666666667	1.5578210260434842	0.9549236814718547	0.0	1.446381753034554	0.9070562891660057	0.0	1.4645481884731493	0.47883086862054647	0.0	1.4626022573273487	0.10732085313292251	0.0	1.4864002525973874	-0.025988858004384722	0.0	1.4116135989235405	-0.01855657687979577	0.0	1.4832228071715623	0.05486125710208903	0.0	1.6711508876640304	0.9190339718035493	0.0	1.734214587703724	0.49947519222243514	0.0	1.8277673439918796	0.15161379946412148	0.0	1.747112829980062	0.0017588975554786025	0.0	1.8287852348649676	0.00586849428411908	0.0	1.8588052199559126	0.09722105951956359	0.0	1.520796025453907	1.5859891398141552	0.0	1.562227671502221	1.8592876376718694	0.0	1.6754882476463064	1.7097258148306003	0.0	1.3204638183625816	1.4729550881461915	0.0	1.2741642519946241	1.1635699136884188	0.0	1.458571420363595	1.1983960369057305	0.0	1.726013139630618	1.4949850011010648	0.0	1.8122439424334835	1.205308464928554	0.0	1.701779675052048	1.1510397277843853	0.0
42	1.4	1.560427389896091	0.9547035431637046	0.0	1.4488201246548735	0.9074782745449309	0.0	1.4656295767324596	0.48040570301019947	0.0	1.4644876650566623	0.1067460118082281	0.0	1.4867287369551945	-0.025301190396446398	0.0	1.4123403781076476	-0.018241880284576385	0.0	1.483947493357198	0.05440307745910846	0.0	1.673972681973635	0.9209113548523559	0.0	1.7362170426317831	0.5011197626311659	0.0	1.828374718749994	0.14877537096111593	0.0	1.7484771155995154	0.002744264316811871	0.0	1.8285577226818883	0.004845461755998984	0.0	1.8580605715294756	0.09599315805225646	0.0	1.5228722769961467	1.5850196301587964	0.0	1.564434505277181	1.8587998383590316	0.0	1.677446456628797	1.7120684433136761	0.0	1.323224373526685	1.473073002595346	0.0	1.2743096021798088	1.1637589192203064	0.0	1.4580598274262835	1.19453644559734	0.0	1.7292500308996253	1.4939451813269615	0.0	1.815325108906491	1.2057769945725663	0.0	1.7102630010030817	1.153831803189025	0.0
43	1.4333333333333333	1.5627957265800652	0.9553538909652878	0.0	1.4511079419842727	0.9092358935206787	0.0	1.4674623648009695	0.4787971330389645	0.0	1.467304035580537	0.10644373404083994	0.0	1.4894249428875086	-0.02980903009555073	0.0	1.414531649773791	-0.02215092106565409	0.0	1.4849584049300197	0.05796993278828326	0.0	1.6756092903751236	0.9233018293839278	0.0	1.7386926795063498	0.5012368635786405	0.0	1.8290649541444155	0.14550184308071493	0.0	1.750804400254392	0.0012902142124634705	0.0	1.830487790310002	0.0027940990816389235	0.0	1.8579943223069464	0.09469847373588211	0.0	1.525241498410649	1.584218989258751	0.0	1.5687353090697889	1.859853388952048	0.0	1.6795353332281697	1.7118463677275118	0.0	1.326442749210426	1.472744698378338	0.0	1.2744175578565076	1.163339884814104	0.0	1.4603464585760475	1.1936036051492187	0.0	1.7314065329203003	1.4929271172038587	0.0	1.819919952973316	1.2038079583653383	0.0	1.7130591162251945	1.156743477693495	0.0
44	1.4666666666666666	1.5650242629862652	0.9558742346611285	0.0	1.4530843913448208	0.9106993732999172	0.0	1.4704344462653487	0.476146568966524	0.0	1.4698089010490403	0.10482134856637206	0.0	1.4911458096940364	-0.03692165464698441	0.0	1.416581252528882	-0.02912391941396829	0.0	1.4866134799459565	0.058748586371212067	0.0	1.677599878856035	0.924175279671054	0.0	1.740890373055249	0.500242349730583	0.0	1.8300526978580895	0.14504236473093815	0.0	1.7529981099588212	0.0009668257215707437	0.0	1.8326194895474939	0.0026394759528327065	0.0	1.8583283860558832	0.09459000810623258	0.0	1.527414326529973	1.58362117942714	0.0	1.5737111153756906	1.860692690762709	0.0	1.6817138382860484	1.7084808495302763	0.0	1.3292209397473824	1.47244348754089	0.0	1.2751588230365936	1.1629893498633157	0.0	1.4631449072395428	1.1952870472543908	0.0	1.731743446212817	1.4931048011149808	0.0	1.82694263379678	1.2034138948696127	0.0	1.7123134623003538	1.1580742256862437	0.0
